<svg xmlns="http://www.w3.org/2000/svg" xml:space="preserve" width="1500" height="1500" data-id="lg_4S5XQsLw2Go7Et9uyx" data-version="1" viewBox="0 0 1500 1500"><path fill="#fff" stroke="transparent" d="M0 0h1500v1500H0z"/><g data-padding="20"><g transform="translate(-569.073 -579.654)scale(1.71898)"><rect width="560" height="228.26" x="86.177" y="259.132" fill="none" rx="0" ry="0" transform="translate(400.5 400.25)"/><path fill="#535353" d="M492.147 716.252q-3.95-.99-3.95-6.51 0-5.53 5.53-10.16-2.37-1.68-3.95-4.39-1.58-2.72-1.58-5.48t.99-4.48q.99-1.73 2.96-2.32 7.69 4.73 15.48 4.73 3.06 0 8.24-2.37 5.18-2.36 7.74-2.36 6.32 0 11.05 8.09 4.64-8.09 10.85-8.09 2.56 0 7.74 2.36 5.18 2.37 8.24 2.37 7.49 0 15.48-4.73 2.47 0 3.46 3.75.39 1.38.39 3.6 0 2.21-1.48 4.68-2.37 3.95-4.14 4.64 2.27 1.38 3.94 4.24 1.68 2.86 1.68 5.03t-.39 3.6q-.4 1.43-.89 2.12-1.09 1.28-2.57 1.68-6.01-6.91-16.57-6.91l-10.16.4q-1.18 1.18-1.18 13.02 0 11.83 1.09 18.93 1.08 7.1 2.71 10.51 1.63 3.4 3.2 5.37 1.58 1.98 2.67 2.96 1.08.99 1.08 1.83 0 .83-.79 1.72t-1.97 1.78-2.61 3.3q-1.43 2.42-2.62 5.87-2.76 8.09-2.76 23.52 0 15.44 2.61 23.23 2.62 7.79 9.33 14.21 0 3.55-5.53 5.32-2.07.59-5.77.59t-7.64-2.86q-3.95-2.86-5.72-5.62l-1.68-2.86q-2.86 7.1-10.16 10.16-2.96 1.18-5.97 1.18-3 0-5.13-.59-2.12-.59-3.1-1.48-2.17-1.97-2.47-3.84 6.71-6.42 9.32-14.26 2.62-7.84 2.62-19.82 0-11.99-1.09-19.24-1.08-7.24-2.66-10.5-1.58-3.25-3.21-5.08-1.62-1.82-2.71-2.81-1.08-.99-1.08-1.87 0-.89 1.08-1.88 1.09-.98 2.71-2.96 1.63-1.97 3.21-5.42 3.75-7.99 3.75-23.82t-1.19-18.59q0-.4-8.68-.4t-11.83 1.63q-3.16 1.63-5.92 5.28m185.53 115.3q-5.23 10.35-15.88 10.35-5.62 0-7.7-1.38-3.15-2.36-4.04-4.44 6.21-7.49 6.21-19.03 0-9.96-1.33-14.6t-2.96-10.26q-1.62-5.62-3-10.95h-.69l-22.59.1q-.59 2.47-2.07 8.19t-2.07 8.68q-1.98 8.68-1.98 17.06 0 12.73 7.2 20.81-.1.2-.19.6-.1.39-.74 1.43-.64 1.03-1.43 1.82-2.17 1.97-5.28 1.97t-5.43-1.08q-2.31-1.09-3.6-2.57-2.95-3.15-4.04-6.7-4.04 4.04-9.86 7.2-5.82 3.15-10.06 3.15-6.91 0-6.91-5.13v-.69q8.09-6.41 12.33-13.66t8.19-21.35l5.13-18.05q-6.02 1.48-10.75 5.13-.99 0-1.83-1.48t-.84-3.55q0-4.64 6.91-8.19-1.78-.59-3.55-2.46-3.36-3.26-3.36-5.38t.3-3.16q.29-1.03.59-1.52.79-.99 1.78-1.19 6.11 4.74 15.19 6.02l11.44-40.44q3.84-13.61 3.84-21.7t-5.22-16.27v-.4q0-5.52 11.14-5.52 5.72 0 12.43 7.3 1.48 1.67 3.06 4.04 2.86-7 11.24-10.16 3.45-1.18 6.81-1.18 3.35 0 5.13 1.48 1.77 1.48 2.56 4.44-2.86 8.28-2.86 18.88 0 10.61 1.77 18.89 1.78 8.29 4.49 15.54t5.13 10.6 4.49 5.28q2.07 1.92 3.3 2.86 1.24.93 1.24 1.82t-.79 1.92q-.79 1.04-1.78 2.13-2.56 2.95-2.56 11.83 0 16.67 6.85 33.19 6.86 16.52 16.13 24.31v.4q0 5.42-9.82 5.42-9.81 0-19.67-10.35m-37.98-63.42h6.12q-7.99-32.36-8.48-35.12-4.15 16.77-8.49 35.12Zm142.33 73.77q-9.27-5.91-14.2-5.91t-9.57 2.95q-4.64 2.96-7.3 2.96-6.41 0-14.1-11.24-1.38 3.35-4.44 6.02-5.82 5.22-10.6 5.22-4.79 0-7.35-1.48-2.57-1.48-2.96-2.95l-.4-1.48q6.71-4.34 8.39-7.89.79-1.88 1.43-3.11t.98-3.9q.35-2.66.6-4.29.24-1.63.34-5.37.1-3.75.1-6.02v-7.4q0-22.78-7-31.07-1.58-1.87-2.67-2.86-1.08-.98-1.08-1.87t1.08-1.88q1.09-.98 2.72-2.86 1.62-1.87 3.2-5.22 3.75-7.99 3.75-25.01 0-17.01-2.61-24.56-2.62-7.54-9.32-13.95 0-3.55 5.52-5.23 2.07-.59 5.08-.59t5.92 1.08q2.91 1.09 4.68 2.57 3.75 3.05 5.53 6.7.49-.98 2.41-3.2t3.7-3.6q4.83-3.55 8.83-3.55 3.99 0 6.11.59t3.11 1.48q2.17 1.97 2.47 3.75-6.71 6.41-9.32 13.95-2.62 7.55-2.62 19.53 0 11.99 1.09 19.33 1.08 7.35 2.66 10.71 1.58 3.35 3.2 5.22 1.63 1.88 2.72 2.86 1.08.99 1.08 1.88t-1.08 1.87q-1.09.99-2.72 2.91-1.62 1.93-3.2 5.18-3.75 7.69-3.75 25.84l-.1 11.05q0 4.34.59 5.62.6 1.28 2.67 1.28l9.86-.59q6.41 0 9.57-1.48 3.15-1.48 7-5.32 2.37 0 3.55 3.74.4 1.38.4 3.55t-1.38 4.54q-2.08 3.55-4.25 4.74 5.63 4.73 5.63 9.76 0 6.02-3.95 7m88.87-158.99q10.16 0 17.26 10.35.49-.98 2.47-3.2 1.97-2.22 3.74-3.6 5.03-3.55 10.06-3.55t7.6 1.48q2.56 1.48 2.96 2.86l.39 1.48q-6.7 6.41-9.32 13.95-2.61 7.55-2.61 19.53 0 11.99 1.08 19.33 1.09 7.35 2.67 10.71 1.57 3.35 3.2 5.22 1.63 1.88 2.71 2.86 1.09.99 1.09 1.93 0 .93-1.09 2.02-1.08 1.08-2.71 3.21-1.63 2.12-3.2 5.57-3.75 8.38-3.75 24.61 0 16.22 2.61 24.06 2.62 7.84 9.32 14.26 0 3.65-5.42 5.32-2.17.59-5.97.59t-7.99-2.86-5.97-5.62l-1.87-2.86q-4.24 7.1-11.34 10.16-2.86 1.18-6.56 1.18t-6.31-1.48q-2.62-1.48-3.11-2.95l-.4-1.48q6.71-6.42 9.33-14.26 2.61-7.84 2.61-16.86 0-9.03-.05-11.35-.05-2.31-.2-5.57-.15-3.25-.44-4.93-.3-1.68-.84-3.95-.54-2.26-1.38-3.4-.84-1.13-2.07-2.41-1.23-1.29-2.81-1.88-3.85-1.38-7.7-1.38-3.84 0-6.11.39-2.27.4-3.9 1.48-1.63 1.09-2.81 2.17-1.18 1.09-1.92 3.41-.74 2.31-1.19 4.09-.44 1.78-.64 5.33-.29 5.22-.29 16.17t2.61 18.74 9.32 14.21q0 3.55-5.52 5.32-2.07.59-5.87.59t-8.09-2.86-6.16-5.62l-1.98-2.86q-.39.99-2.36 3.45-1.98 2.47-3.75 3.95-4.93 3.94-9.91 3.94t-7.6-1.48q-2.61-1.48-3.01-2.95l-.49-1.48q6.71-6.42 9.32-14.26 2.62-7.84 2.62-19.48t-1.09-18.64q-1.08-7-2.66-10.5t-3.21-5.62q-1.63-2.13-2.71-3.21-1.09-1.09-1.09-2.02 0-.94 1.09-1.93 1.08-.98 2.71-2.86 1.63-1.87 3.21-5.22 3.75-7.99 3.75-25.01 0-17.01-2.62-24.56-2.61-7.54-9.32-13.95 0-3.46 5.52-5.23 2.08-.59 4.94-.59 10.06 0 16.66 10.35 7.8-10.35 17.27-10.35 4.43 0 7 1.48 2.56 1.48 2.96 2.86l.39 1.48q-6.71 6.41-9.32 13.95-2.61 7.55-2.61 21.06v3.06q0 16.67 2.17 20.32 1.87 3.25 3.25 3.99t2.86 1.33q2.57.99 6.81.99t6.8-.54q2.57-.54 4.34-1.38 1.78-.84 2.91-2.77 1.14-1.92 1.83-3.6.69-1.67.98-5.12.4-5.03.4-13.91v-2.37q0-13.51-2.61-21.06-2.62-7.54-9.33-13.95 0-3.46 5.63-5.23 2.07-.59 4.83-.59m147.65 148.64q-5.22 10.35-15.88 10.35-5.62 0-7.69-1.38-3.16-2.36-4.04-4.44 6.21-7.49 6.21-19.03 0-9.96-1.33-14.6t-2.96-10.26-3.01-10.95h-.69l-22.59.1q-.59 2.47-2.07 8.19t-2.07 8.68q-1.97 8.68-1.97 17.06 0 12.73 7.2 20.81-.1.2-.2.6-.1.39-.74 1.43-.64 1.03-1.43 1.82-2.17 1.97-5.28 1.97-3.1 0-5.42-1.08-2.32-1.09-3.6-2.57-2.96-3.15-4.04-6.7-4.05 4.04-9.87 7.2-5.82 3.15-10.06 3.15-6.9 0-6.9-5.13v-.69q8.09-6.41 12.33-13.66t8.18-21.35l5.13-18.05q-6.01 1.48-10.75 5.13-.99 0-1.82-1.48-.84-1.48-.84-3.55 0-4.64 6.9-8.19-1.77-.59-3.55-2.46-3.35-3.26-3.35-5.38t.29-3.16q.3-1.03.6-1.52.78-.99 1.77-1.19 6.12 4.74 15.19 6.02l11.44-40.44q3.85-13.61 3.85-21.7t-5.23-16.27v-.4q0-5.52 11.15-5.52 5.72 0 12.42 7.3 1.48 1.67 3.06 4.04 2.86-7 11.25-10.16 3.45-1.18 6.8-1.18t5.13 1.48 2.56 4.44q-2.86 8.28-2.86 18.88 0 10.61 1.78 18.89 1.78 8.29 4.49 15.54t5.13 10.6q2.41 3.35 4.48 5.28 2.08 1.92 3.31 2.86 1.23.93 1.23 1.82t-.79 1.92q-.79 1.04-1.77 2.13-2.57 2.95-2.57 11.83 0 16.67 6.86 33.19 6.85 16.52 16.12 24.31v.4q0 5.42-9.81 5.42t-19.68-10.35m-37.97-63.42h6.11q-7.98-32.36-8.48-35.12-4.14 16.77-8.48 35.12Z"/></g><path fill="transparent" stroke="transparent" stroke-width="1.783" d="M250 546.791h1000V953.21H250z"/></g></svg>